<svg width="20" height="21" viewBox="0 0 20 21" fill="none" xmlns="http://www.w3.org/2000/svg">
<path d="M12.1319 11.7981C11.5989 12.6967 10.5638 13.1697 9.53555 12.9842C8.50735 12.7988 7.70259 11.994 7.51715 10.9658C7.3317 9.9376 7.80462 8.9024 8.70325 8.36945" stroke="#161924" stroke-width="1.8" stroke-linecap="round" stroke-linejoin="round"/>
<path d="M14.9971 14.6635C13.5598 15.7537 11.8039 16.3413 9.99994 16.3358C7.01069 16.389 4.24873 14.7461 2.86863 12.094C2.37289 11.0891 2.37289 9.91085 2.86863 8.906C3.55884 7.53152 4.65909 6.40547 6.01721 5.68359" stroke="#161924" stroke-width="1.8" stroke-linecap="round" stroke-linejoin="round"/>
<path d="M17.0229 12.2787C17.0564 12.2154 17.0999 12.1585 17.1315 12.094C17.6272 11.0891 17.6272 9.91083 17.1315 8.90598C15.7514 6.25383 12.9894 4.61099 10.0001 4.66422C9.81273 4.66422 9.63057 4.68923 9.44556 4.70142" stroke="#161924" stroke-width="1.5" stroke-linecap="round" stroke-linejoin="round"/>
<path d="M17.5031 17.1694L3.33057 2.99686" stroke="#161924" stroke-width="1.5" stroke-linecap="round" stroke-linejoin="round"/>
</svg>
