<svg width="20" height="21" viewBox="0 0 20 21" fill="none" xmlns="http://www.w3.org/2000/svg">
<path d="M11.7682 8.73331C12.744 9.70914 12.744 11.2933 11.7682 12.2708C10.7923 13.2466 9.20815 13.2466 8.23065 12.2708C7.25482 11.295 7.25482 9.71081 8.23065 8.73331C9.20815 7.75581 10.7915 7.75581 11.7682 8.73331" stroke="#161924" stroke-width="1.5" stroke-linecap="round" stroke-linejoin="round"/>
<path fill-rule="evenodd" clip-rule="evenodd" d="M2.5 10.5C2.5 9.95082 2.62667 9.40749 2.87167 8.90666V8.90666C4.13417 6.32582 6.92417 4.66666 10 4.66666C13.0758 4.66666 15.8658 6.32582 17.1283 8.90666V8.90666C17.3733 9.40749 17.5 9.95082 17.5 10.5C17.5 11.0492 17.3733 11.5925 17.1283 12.0933V12.0933C15.8658 14.6742 13.0758 16.3333 10 16.3333C6.92417 16.3333 4.13417 14.6742 2.87167 12.0933V12.0933C2.62667 11.5925 2.5 11.0492 2.5 10.5Z" stroke="#161924" stroke-width="1.5" stroke-linecap="round" stroke-linejoin="round"/>
</svg>
