<svg width="56" height="57" viewBox="0 0 56 57" fill="none" xmlns="http://www.w3.org/2000/svg">
<path d="M48.8596 26.9609H47.4639C47.3663 26.9609 47.2687 26.9698 47.1741 26.9875L43.1794 27.7534C39.2319 28.5103 35.1395 27.3364 32.2506 24.5392C32.1531 24.4446 32.0555 24.347 31.9609 24.2494C29.1636 21.3635 27.9898 17.2711 28.7467 13.3207L29.5126 9.32595C29.5303 9.23133 29.5392 9.13376 29.5392 9.03618V7.64052C29.5392 6.78893 28.8502 6.09998 27.9986 6.09998C27.147 6.09998 26.4581 6.78893 26.4581 7.64052V9.03618C26.4581 9.13376 26.4669 9.23133 26.4847 9.32595L27.2505 13.3178C28.0193 17.3332 26.7893 21.4936 23.9004 24.3884C23.8501 24.4387 23.7998 24.4889 23.7496 24.5363C20.8636 27.3335 16.7713 28.5074 12.8208 27.7504L8.82607 26.9846C8.73145 26.9668 8.63388 26.958 8.5363 26.958H7.14065C6.28906 26.958 5.6001 27.6469 5.6001 28.4985C5.6001 29.3501 6.28906 30.039 7.14065 30.039H8.5363C8.63388 30.039 8.73145 30.0302 8.82607 30.0124L12.8208 29.2466C16.7683 28.4896 20.8607 29.6635 23.7496 32.4607C23.8471 32.5554 23.9447 32.6529 24.0393 32.7505C26.8366 35.6365 28.0104 39.7288 27.2535 43.6792L26.4876 47.674C26.4699 47.7686 26.461 47.8662 26.461 47.9638V49.3594C26.461 50.211 27.15 50.9 28.0016 50.9C28.8532 50.9 29.5421 50.211 29.5421 49.3594V47.9638C29.5421 47.8662 29.5333 47.7686 29.5155 47.674L28.7497 43.6792C27.9927 39.7318 29.1666 35.6394 31.9638 32.7505C32.0584 32.6529 32.156 32.5554 32.2536 32.4607C35.1395 29.6635 39.2319 28.4896 43.1823 29.2466L47.1771 30.0124C47.2717 30.0302 47.3693 30.039 47.4669 30.039H48.8625C49.7141 30.039 50.4031 29.3501 50.4031 28.4985C50.4031 27.6469 49.7141 26.958 48.8625 26.958L48.8596 26.9609Z" fill="#FB7145"/>
<path d="M42.8499 15.8307L43.8375 14.8431C44.4407 14.2399 44.4407 13.2641 43.8375 12.6638C43.2343 12.0606 42.2585 12.0606 41.6583 12.6638L40.6707 13.6514C40.6027 13.7194 40.5406 13.7963 40.4844 13.8762L35.0703 21.431L42.6252 16.017C42.705 15.9608 42.7819 15.8987 42.8499 15.8307Z" fill="#FB7145"/>
<path d="M13.1451 41.1745L12.1575 42.1621C11.5543 42.7653 11.5543 43.7411 12.1575 44.3413C12.7607 44.9445 13.7365 44.9445 14.3367 44.3413L15.3243 43.3537C15.3923 43.2857 15.4544 43.2088 15.5106 43.129L20.9247 35.5741L13.3698 40.9882C13.29 41.0444 13.2131 41.1065 13.1451 41.1745Z" fill="#FB7145"/>
<path d="M42.8499 41.1745C42.7819 41.1065 42.705 41.0444 42.6252 40.9882L35.0703 35.5741L40.4844 43.129C40.5376 43.2088 40.6027 43.2857 40.6707 43.3537L41.6583 44.3413C42.2615 44.9445 43.2373 44.9445 43.8375 44.3413C44.4407 43.7381 44.4407 42.7623 43.8375 42.1621L42.8499 41.1745Z" fill="#FB7145"/>
<path d="M13.1451 15.8307C13.2131 15.8987 13.29 15.9608 13.3698 16.017L20.9247 21.431L15.5106 13.8762C15.4574 13.7963 15.3923 13.7194 15.3243 13.6514L14.3367 12.6638C13.7335 12.0606 12.7577 12.0606 12.1575 12.6638C11.5543 13.267 11.5543 14.2428 12.1575 14.8431L13.1451 15.8307Z" fill="#FB7145"/>
</svg>
